# xmcd
#
# Track frame offsets:
#	150
#	12818
#	25374
#	37674
#	50016
#	63383
#	72835
#	83000
#	96608
#	107585
#	120337
#	132955
#	142323
#	155235
#	165547
#	177209
#	187033
#	196961
#	209289
#	220295
#	230944
#	241745
#	252767
#	266852
#
# Disc length: 3726 seconds
#
# Revision: 1
# Processed by: cddbd v1.5.2PL0 Copyright (c) Steve Scherf et al.
# Submitted via: EZCDAudioConverter 1.2.5.1
#
DISCID=610e8c18
DTITLE=James Brown and the Famous Flames - Tell me what you're gonna do - Thin
DTITLE=k!
DYEAR=2013
DGENRE=Funk
TTITLE0=Just you and me, darling
TTITLE1=I love you, yes I do
TTITLE2=I don't mind
TTITLE3=Come over here
TTITLE4=The bells
TTITLE5=Love don't love nobody
TTITLE6=Dancin' little thing
TTITLE7=Lost someone
TTITLE8=And I do just what I want
TTITLE9=So long
TTITLE10=You don't have to
TTITLE11=Tell me what you're gonna do
TTITLE12=Think
TTITLE13=Good good lovin'
TTITLE14=Wonder when you're coming home
TTITLE15=I'll go crazy
TTITLE16=This old heart
TTITLE17=I know it's true
TTITLE18=Bewildered
TTITLE19=I'll never never let you go
TTITLE20=You've got the power
TTITLE21=If you want me
TTITLE22=Baby, you're right
TTITLE23=So long
EXTD=
EXTT0=
EXTT1=
EXTT2=
EXTT3=
EXTT4=
EXTT5=
EXTT6=
EXTT7=
EXTT8=
EXTT9=
EXTT10=
EXTT11=
EXTT12=
EXTT13=
EXTT14=
EXTT15=
EXTT16=
EXTT17=
EXTT18=
EXTT19=
EXTT20=
EXTT21=
EXTT22=
EXTT23=
PLAYORDER=
